<svg width="320" height="320" viewBox="0 0 320 320" fill="none" xmlns="http://www.w3.org/2000/svg" role="img" aria-labelledby="title desc">
  <title id="title">IndiCare logo</title>
  <desc id="desc">Blue caring hands forming a tree with leaves.</desc>
  <rect width="320" height="320" rx="48" fill="white"/>
  <g fill="#0057B8">
    <path d="M148 230c-14-26-24-54-20-82 2-15 8-28 17-39 4-5 12-1 10 6-8 28-4 54 11 78 7 11 16 21 27 30 4 4 2 11-4 11h-34c-3 0-5-1-7-4Z"/>
    <path d="M172 230c14-26 24-54 20-82-2-15-8-28-17-39-4-5-12-1-10 6 8 28 4 54-11 78-7 11-16 21-27 30-4 4-2 11 4 11h34c3 0 5-1 7-4Z"/>
    <path d="M130 164c-22-16-32-34-31-55 0-6 8-8 11-3 10 18 23 31 39 39 6 3 5 12-2 14l-17 5Z"/>
    <path d="M190 164c22-16 32-34 31-55 0-6-8-8-11-3-10 18-23 31-39 39-6 3-5 12 2 14l17 5Z"/>
    <ellipse cx="160" cy="68" rx="16" ry="28"/>
    <ellipse cx="120" cy="88" rx="13" ry="24" transform="rotate(-28 120 88)"/>
    <ellipse cx="200" cy="88" rx="13" ry="24" transform="rotate(28 200 88)"/>
    <ellipse cx="92" cy="126" rx="12" ry="22" transform="rotate(-35 92 126)"/>
    <ellipse cx="228" cy="126" rx="12" ry="22" transform="rotate(35 228 126)"/>
    <ellipse cx="132" cy="54" rx="9" ry="15" transform="rotate(-18 132 54)"/>
    <ellipse cx="188" cy="54" rx="9" ry="15" transform="rotate(18 188 54)"/>
    <ellipse cx="105" cy="65" rx="8" ry="13" transform="rotate(-42 105 65)"/>
    <ellipse cx="215" cy="65" rx="8" ry="13" transform="rotate(42 215 65)"/>
    <ellipse cx="78" cy="94" rx="7" ry="12" transform="rotate(-45 78 94)"/>
    <ellipse cx="242" cy="94" rx="7" ry="12" transform="rotate(45 242 94)"/>
    <ellipse cx="66" cy="135" rx="6" ry="10" transform="rotate(-22 66 135)"/>
    <ellipse cx="254" cy="135" rx="6" ry="10" transform="rotate(22 254 135)"/>
  </g>
  <text x="160" y="286" text-anchor="middle" font-family="Arial, Helvetica, sans-serif" font-size="34" font-weight="700" letter-spacing="5" fill="#111827">INDICARE</text>
</svg>
